<svg xmlns="http://www.w3.org/2000/svg" xmlns:xlink="http://www.w3.org/1999/xlink" width="3456" zoomAndPan="magnify" viewBox="0 0 2592 1727.999927" height="2304" preserveAspectRatio="xMidYMid meet" version="1.0"><defs><g/><clipPath id="e9c71ee55b"><path d="M 104 332 L 1165 332 L 1165 1393 L 104 1393 Z M 104 332 " clip-rule="nonzero"/></clipPath><clipPath id="52e0823011"><path d="M 1164.429688 862.382812 C 1164.429688 871.050781 1164.214844 879.714844 1163.789062 888.375 C 1163.363281 897.035156 1162.726562 905.679688 1161.878906 914.308594 C 1161.027344 922.933594 1159.964844 931.535156 1158.695312 940.113281 C 1157.421875 948.6875 1155.941406 957.226562 1154.25 965.730469 C 1152.558594 974.234375 1150.65625 982.691406 1148.550781 991.101562 C 1146.445312 999.511719 1144.132812 1007.863281 1141.613281 1016.160156 C 1139.097656 1024.457031 1136.378906 1032.6875 1133.457031 1040.847656 C 1130.535156 1049.011719 1127.417969 1057.097656 1124.097656 1065.109375 C 1120.78125 1073.117188 1117.269531 1081.042969 1113.5625 1088.878906 C 1109.855469 1096.714844 1105.957031 1104.457031 1101.867188 1112.105469 C 1097.78125 1119.75 1093.507812 1127.292969 1089.050781 1134.726562 C 1084.59375 1142.164062 1079.957031 1149.488281 1075.140625 1156.695312 C 1070.320312 1163.902344 1065.332031 1170.988281 1060.164062 1177.953125 C 1055 1184.917969 1049.667969 1191.75 1044.167969 1198.453125 C 1038.664062 1205.152344 1033.003906 1211.714844 1027.179688 1218.140625 C 1021.359375 1224.5625 1015.382812 1230.839844 1009.25 1236.972656 C 1003.117188 1243.101562 996.839844 1249.078125 990.417969 1254.902344 C 983.992188 1260.722656 977.429688 1266.382812 970.726562 1271.882812 C 964.023438 1277.382812 957.1875 1282.71875 950.226562 1287.882812 C 943.261719 1293.046875 936.171875 1298.035156 928.964844 1302.851562 C 921.753906 1307.667969 914.429688 1312.308594 906.992188 1316.765625 C 899.554688 1321.222656 892.015625 1325.492188 884.367188 1329.578125 C 876.71875 1333.667969 868.976562 1337.5625 861.140625 1341.269531 C 853.300781 1344.976562 845.375 1348.488281 837.367188 1351.808594 C 829.355469 1355.125 821.269531 1358.246094 813.105469 1361.164062 C 804.941406 1364.085938 796.710938 1366.804688 788.410156 1369.320312 C 780.113281 1371.839844 771.761719 1374.148438 763.347656 1376.257812 C 754.9375 1378.363281 746.480469 1380.261719 737.976562 1381.953125 C 729.472656 1383.644531 720.933594 1385.125 712.355469 1386.398438 C 703.777344 1387.671875 695.175781 1388.730469 686.546875 1389.582031 C 677.917969 1390.429688 669.273438 1391.070312 660.613281 1391.492188 C 651.953125 1391.917969 643.285156 1392.132812 634.617188 1392.132812 C 625.945312 1392.132812 617.277344 1391.917969 608.617188 1391.496094 C 599.957031 1391.070312 591.3125 1390.429688 582.683594 1389.582031 C 574.054688 1388.730469 565.453125 1387.671875 556.875 1386.398438 C 548.296875 1385.125 539.757812 1383.644531 531.253906 1381.953125 C 522.75 1380.261719 514.292969 1378.363281 505.882812 1376.257812 C 497.46875 1374.148438 489.117188 1371.839844 480.820312 1369.320312 C 472.519531 1366.804688 464.289062 1364.085938 456.125 1361.164062 C 447.960938 1358.246094 439.875 1355.125 431.863281 1351.808594 C 423.855469 1348.488281 415.929688 1344.976562 408.089844 1341.269531 C 400.253906 1337.5625 392.511719 1333.667969 384.863281 1329.578125 C 377.214844 1325.492188 369.675781 1321.222656 362.238281 1316.765625 C 354.800781 1312.308594 347.476562 1307.667969 340.265625 1302.851562 C 333.058594 1298.035156 325.96875 1293.046875 319.007812 1287.882812 C 312.042969 1282.71875 305.207031 1277.382812 298.503906 1271.882812 C 291.800781 1266.382812 285.238281 1260.722656 278.816406 1254.902344 C 272.390625 1249.078125 266.113281 1243.101562 259.980469 1236.972656 C 253.847656 1230.839844 247.871094 1224.5625 242.050781 1218.140625 C 236.226562 1211.714844 230.566406 1205.152344 225.0625 1198.453125 C 219.5625 1191.75 214.230469 1184.917969 209.066406 1177.953125 C 203.898438 1170.988281 198.910156 1163.902344 194.089844 1156.695312 C 189.273438 1149.488281 184.636719 1142.164062 180.179688 1134.726562 C 175.722656 1127.292969 171.449219 1119.75 167.363281 1112.105469 C 163.273438 1104.457031 159.378906 1096.714844 155.667969 1088.878906 C 151.960938 1081.042969 148.449219 1073.117188 145.132812 1065.109375 C 141.8125 1057.097656 138.695312 1049.011719 135.773438 1040.847656 C 132.851562 1032.6875 130.132812 1024.457031 127.617188 1016.160156 C 125.097656 1007.863281 122.785156 999.511719 120.679688 991.101562 C 118.574219 982.691406 116.675781 974.234375 114.980469 965.730469 C 113.289062 957.226562 111.808594 948.6875 110.535156 940.113281 C 109.265625 931.535156 108.203125 922.933594 107.351562 914.308594 C 106.503906 905.679688 105.867188 897.035156 105.441406 888.375 C 105.015625 879.714844 104.800781 871.050781 104.800781 862.382812 C 104.800781 853.710938 105.015625 845.046875 105.441406 836.386719 C 105.867188 827.730469 106.503906 819.085938 107.351562 810.457031 C 108.203125 801.828125 109.265625 793.226562 110.535156 784.652344 C 111.808594 776.074219 113.289062 767.535156 114.980469 759.03125 C 116.675781 750.53125 118.574219 742.074219 120.679688 733.664062 C 122.785156 725.253906 125.097656 716.898438 127.617188 708.605469 C 130.132812 700.308594 132.851562 692.078125 135.773438 683.914062 C 138.695312 675.75 141.8125 667.664062 145.132812 659.65625 C 148.449219 651.644531 151.960938 643.722656 155.667969 635.886719 C 159.378906 628.046875 163.273438 620.304688 167.363281 612.660156 C 171.449219 605.015625 175.722656 597.472656 180.179688 590.035156 C 184.636719 582.601562 189.273438 575.277344 194.089844 568.070312 C 198.910156 560.859375 203.898438 553.773438 209.066406 546.808594 C 214.230469 539.847656 219.5625 533.015625 225.0625 526.3125 C 230.566406 519.609375 236.226562 513.046875 242.050781 506.625 C 247.871094 500.199219 253.847656 493.921875 259.980469 487.792969 C 266.113281 481.660156 272.390625 475.6875 278.816406 469.863281 C 285.238281 464.042969 291.800781 458.378906 298.503906 452.878906 C 305.207031 447.378906 312.042969 442.046875 319.007812 436.882812 C 325.96875 431.71875 333.058594 426.726562 340.265625 421.910156 C 347.476562 417.09375 354.800781 412.457031 362.238281 408 C 369.675781 403.542969 377.214844 399.269531 384.863281 395.183594 C 392.511719 391.097656 400.253906 387.199219 408.089844 383.492188 C 415.929688 379.785156 423.855469 376.273438 431.863281 372.957031 C 439.875 369.640625 447.960938 366.519531 456.125 363.597656 C 464.289062 360.679688 472.519531 357.960938 480.820312 355.441406 C 489.117188 352.925781 497.46875 350.613281 505.882812 348.507812 C 514.292969 346.402344 522.75 344.503906 531.253906 342.8125 C 539.757812 341.121094 548.296875 339.636719 556.875 338.367188 C 565.453125 337.09375 574.054688 336.03125 582.683594 335.183594 C 591.3125 334.332031 599.957031 333.695312 608.617188 333.269531 C 617.277344 332.84375 625.945312 332.632812 634.617188 332.632812 C 643.285156 332.632812 651.953125 332.84375 660.613281 333.269531 C 669.273438 333.695312 677.917969 334.332031 686.546875 335.183594 C 695.175781 336.03125 703.777344 337.09375 712.355469 338.367188 C 720.933594 339.636719 729.472656 341.121094 737.976562 342.8125 C 746.480469 344.503906 754.9375 346.402344 763.347656 348.507812 C 771.761719 350.613281 780.113281 352.925781 788.410156 355.441406 C 796.710938 357.960938 804.941406 360.679688 813.105469 363.597656 C 821.269531 366.519531 829.355469 369.640625 837.367188 372.957031 C 845.375 376.273438 853.300781 379.785156 861.140625 383.492188 C 868.976562 387.199219 876.71875 391.097656 884.367188 395.183594 C 892.015625 399.269531 899.554688 403.542969 906.992188 408 C 914.429688 412.457031 921.753906 417.09375 928.964844 421.910156 C 936.171875 426.726562 943.261719 431.71875 950.226562 436.882812 C 957.1875 442.046875 964.023438 447.378906 970.726562 452.878906 C 977.429688 458.378906 983.992188 464.042969 990.417969 469.863281 C 996.839844 475.6875 1003.117188 481.660156 1009.25 487.792969 C 1015.382812 493.921875 1021.359375 500.199219 1027.179688 506.625 C 1033.003906 513.046875 1038.664062 519.609375 1044.167969 526.3125 C 1049.667969 533.015625 1055 539.847656 1060.164062 546.808594 C 1065.332031 553.773438 1070.320312 560.859375 1075.140625 568.070312 C 1079.957031 575.277344 1084.59375 582.601562 1089.050781 590.035156 C 1093.507812 597.472656 1097.78125 605.015625 1101.867188 612.660156 C 1105.957031 620.304688 1109.855469 628.046875 1113.5625 635.886719 C 1117.269531 643.722656 1120.78125 651.644531 1124.097656 659.65625 C 1127.417969 667.664062 1130.535156 675.75 1133.457031 683.914062 C 1136.378906 692.078125 1139.097656 700.308594 1141.613281 708.605469 C 1144.132812 716.898438 1146.445312 725.253906 1148.550781 733.664062 C 1150.65625 742.074219 1152.558594 750.53125 1154.25 759.03125 C 1155.941406 767.535156 1157.421875 776.074219 1158.695312 784.652344 C 1159.964844 793.226562 1161.027344 801.828125 1161.878906 810.457031 C 1162.726562 819.085938 1163.363281 827.730469 1163.789062 836.386719 C 1164.214844 845.046875 1164.429688 853.710938 1164.429688 862.382812 Z M 1164.429688 862.382812 " clip-rule="nonzero"/></clipPath><linearGradient x1="19.999998" gradientTransform="matrix(6.622666, 0, 0, 6.621874, -27.651258, 200.194791)" y1="19.999998" x2="179.999999" gradientUnits="userSpaceOnUse" y2="179.999999" id="a5eda34a52"><stop stop-opacity="1" stop-color="rgb(55.688477%, 79.219055%, 90.19928%)" offset="0"/><stop stop-opacity="1" stop-color="rgb(55.688477%, 79.219055%, 90.19928%)" offset="0.125"/><stop stop-opacity="1" stop-color="rgb(55.497742%, 79.141235%, 90.126038%)" offset="0.132812"/><stop stop-opacity="1" stop-color="rgb(55.116272%, 78.987122%, 89.978027%)" offset="0.140625"/><stop stop-opacity="1" stop-color="rgb(54.734802%, 78.833008%, 89.831543%)" offset="0.148438"/><stop stop-opacity="1" stop-color="rgb(54.353333%, 78.678894%, 89.683533%)" offset="0.15625"/><stop stop-opacity="1" stop-color="rgb(53.971863%, 78.52478%, 89.537048%)" offset="0.164062"/><stop stop-opacity="1" stop-color="rgb(53.590393%, 78.370667%, 89.390564%)" offset="0.171875"/><stop stop-opacity="1" stop-color="rgb(53.207397%, 78.216553%, 89.242554%)" offset="0.179688"/><stop stop-opacity="1" stop-color="rgb(52.825928%, 78.062439%, 89.096069%)" offset="0.1875"/><stop stop-opacity="1" stop-color="rgb(52.444458%, 77.908325%, 88.949585%)" offset="0.195312"/><stop stop-opacity="1" stop-color="rgb(52.062988%, 77.754211%, 88.801575%)" offset="0.203125"/><stop stop-opacity="1" stop-color="rgb(51.681519%, 77.600098%, 88.65509%)" offset="0.210938"/><stop stop-opacity="1" stop-color="rgb(51.300049%, 77.445984%, 88.50708%)" offset="0.21875"/><stop stop-opacity="1" stop-color="rgb(50.918579%, 77.29187%, 88.360596%)" offset="0.226562"/><stop stop-opacity="1" stop-color="rgb(50.535583%, 77.137756%, 88.214111%)" offset="0.234375"/><stop stop-opacity="1" stop-color="rgb(50.154114%, 76.983643%, 88.066101%)" offset="0.242188"/><stop stop-opacity="1" stop-color="rgb(49.772644%, 76.829529%, 87.919617%)" offset="0.25"/><stop stop-opacity="1" stop-color="rgb(49.391174%, 76.675415%, 87.773132%)" offset="0.257812"/><stop stop-opacity="1" stop-color="rgb(49.009705%, 76.521301%, 87.625122%)" offset="0.265625"/><stop stop-opacity="1" stop-color="rgb(48.628235%, 76.367188%, 87.478638%)" offset="0.273438"/><stop stop-opacity="1" stop-color="rgb(48.246765%, 76.213074%, 87.332153%)" offset="0.28125"/><stop stop-opacity="1" stop-color="rgb(47.86377%, 76.05896%, 87.184143%)" offset="0.289062"/><stop stop-opacity="1" stop-color="rgb(47.4823%, 75.904846%, 87.037659%)" offset="0.296875"/><stop stop-opacity="1" stop-color="rgb(47.10083%, 75.750732%, 86.889648%)" offset="0.304688"/><stop stop-opacity="1" stop-color="rgb(46.71936%, 75.596619%, 86.743164%)" offset="0.3125"/><stop stop-opacity="1" stop-color="rgb(46.337891%, 75.442505%, 86.59668%)" offset="0.320312"/><stop stop-opacity="1" stop-color="rgb(45.956421%, 75.288391%, 86.448669%)" offset="0.328125"/><stop stop-opacity="1" stop-color="rgb(45.573425%, 75.134277%, 86.302185%)" offset="0.335938"/><stop stop-opacity="1" stop-color="rgb(45.191956%, 74.980164%, 86.155701%)" offset="0.34375"/><stop stop-opacity="1" stop-color="rgb(44.810486%, 74.82605%, 86.00769%)" offset="0.351562"/><stop stop-opacity="1" stop-color="rgb(44.429016%, 74.671936%, 85.861206%)" offset="0.359375"/><stop stop-opacity="1" stop-color="rgb(44.047546%, 74.517822%, 85.713196%)" offset="0.367188"/><stop stop-opacity="1" stop-color="rgb(43.666077%, 74.363708%, 85.566711%)" offset="0.375"/><stop stop-opacity="1" stop-color="rgb(43.284607%, 74.209595%, 85.420227%)" offset="0.382812"/><stop stop-opacity="1" stop-color="rgb(42.901611%, 74.055481%, 85.272217%)" offset="0.390625"/><stop stop-opacity="1" stop-color="rgb(42.520142%, 73.901367%, 85.125732%)" offset="0.398438"/><stop stop-opacity="1" stop-color="rgb(42.138672%, 73.747253%, 84.979248%)" offset="0.40625"/><stop stop-opacity="1" stop-color="rgb(41.757202%, 73.59314%, 84.831238%)" offset="0.414063"/><stop stop-opacity="1" stop-color="rgb(41.375732%, 73.439026%, 84.684753%)" offset="0.421875"/><stop stop-opacity="1" stop-color="rgb(40.994263%, 73.284912%, 84.536743%)" offset="0.429688"/><stop stop-opacity="1" stop-color="rgb(40.612793%, 73.130798%, 84.390259%)" offset="0.4375"/><stop stop-opacity="1" stop-color="rgb(40.229797%, 72.976685%, 84.243774%)" offset="0.445313"/><stop stop-opacity="1" stop-color="rgb(39.848328%, 72.822571%, 84.095764%)" offset="0.453125"/><stop stop-opacity="1" stop-color="rgb(39.466858%, 72.668457%, 83.94928%)" offset="0.460938"/><stop stop-opacity="1" stop-color="rgb(39.085388%, 72.514343%, 83.802795%)" offset="0.46875"/><stop stop-opacity="1" stop-color="rgb(38.703918%, 72.360229%, 83.654785%)" offset="0.476563"/><stop stop-opacity="1" stop-color="rgb(38.322449%, 72.206116%, 83.508301%)" offset="0.484375"/><stop stop-opacity="1" stop-color="rgb(37.940979%, 72.052002%, 83.360291%)" offset="0.492188"/><stop stop-opacity="1" stop-color="rgb(37.557983%, 71.897888%, 83.213806%)" offset="0.5"/><stop stop-opacity="1" stop-color="rgb(37.367249%, 71.821594%, 83.140564%)" offset="0.5"/><stop stop-opacity="1" stop-color="rgb(37.176514%, 71.743774%, 83.067322%)" offset="0.5"/><stop stop-opacity="1" stop-color="rgb(36.985779%, 71.66748%, 82.99408%)" offset="0.507812"/><stop stop-opacity="1" stop-color="rgb(36.795044%, 71.589661%, 82.919312%)" offset="0.515625"/><stop stop-opacity="1" stop-color="rgb(36.413574%, 71.435547%, 82.772827%)" offset="0.523438"/><stop stop-opacity="1" stop-color="rgb(36.032104%, 71.281433%, 82.626343%)" offset="0.53125"/><stop stop-opacity="1" stop-color="rgb(35.650635%, 71.127319%, 82.478333%)" offset="0.539062"/><stop stop-opacity="1" stop-color="rgb(35.267639%, 70.973206%, 82.331848%)" offset="0.546875"/><stop stop-opacity="1" stop-color="rgb(34.886169%, 70.819092%, 82.183838%)" offset="0.554688"/><stop stop-opacity="1" stop-color="rgb(34.5047%, 70.664978%, 82.037354%)" offset="0.5625"/><stop stop-opacity="1" stop-color="rgb(34.12323%, 70.510864%, 81.890869%)" offset="0.570312"/><stop stop-opacity="1" stop-color="rgb(33.74176%, 70.35675%, 81.742859%)" offset="0.578125"/><stop stop-opacity="1" stop-color="rgb(33.360291%, 70.202637%, 81.596375%)" offset="0.585938"/><stop stop-opacity="1" stop-color="rgb(32.978821%, 70.048523%, 81.44989%)" offset="0.59375"/><stop stop-opacity="1" stop-color="rgb(32.595825%, 69.894409%, 81.30188%)" offset="0.601562"/><stop stop-opacity="1" stop-color="rgb(32.214355%, 69.740295%, 81.155396%)" offset="0.609375"/><stop stop-opacity="1" stop-color="rgb(31.832886%, 69.586182%, 81.007385%)" offset="0.617188"/><stop stop-opacity="1" stop-color="rgb(31.451416%, 69.432068%, 80.860901%)" offset="0.625"/><stop stop-opacity="1" stop-color="rgb(31.069946%, 69.277954%, 80.714417%)" offset="0.632812"/><stop stop-opacity="1" stop-color="rgb(30.688477%, 69.12384%, 80.566406%)" offset="0.640625"/><stop stop-opacity="1" stop-color="rgb(30.307007%, 68.969727%, 80.419922%)" offset="0.648438"/><stop stop-opacity="1" stop-color="rgb(29.924011%, 68.815613%, 80.273438%)" offset="0.65625"/><stop stop-opacity="1" stop-color="rgb(29.542542%, 68.661499%, 80.125427%)" offset="0.664062"/><stop stop-opacity="1" stop-color="rgb(29.161072%, 68.507385%, 79.978943%)" offset="0.671875"/><stop stop-opacity="1" stop-color="rgb(28.779602%, 68.353271%, 79.830933%)" offset="0.679688"/><stop stop-opacity="1" stop-color="rgb(28.398132%, 68.199158%, 79.684448%)" offset="0.6875"/><stop stop-opacity="1" stop-color="rgb(28.016663%, 68.045044%, 79.537964%)" offset="0.695312"/><stop stop-opacity="1" stop-color="rgb(27.635193%, 67.89093%, 79.389954%)" offset="0.703125"/><stop stop-opacity="1" stop-color="rgb(27.252197%, 67.736816%, 79.243469%)" offset="0.710938"/><stop stop-opacity="1" stop-color="rgb(26.870728%, 67.582703%, 79.096985%)" offset="0.71875"/><stop stop-opacity="1" stop-color="rgb(26.489258%, 67.428589%, 78.948975%)" offset="0.726562"/><stop stop-opacity="1" stop-color="rgb(26.107788%, 67.274475%, 78.80249%)" offset="0.734375"/><stop stop-opacity="1" stop-color="rgb(25.726318%, 67.120361%, 78.656006%)" offset="0.742188"/><stop stop-opacity="1" stop-color="rgb(25.344849%, 66.966248%, 78.507996%)" offset="0.75"/><stop stop-opacity="1" stop-color="rgb(24.961853%, 66.812134%, 78.361511%)" offset="0.757812"/><stop stop-opacity="1" stop-color="rgb(24.580383%, 66.65802%, 78.213501%)" offset="0.765625"/><stop stop-opacity="1" stop-color="rgb(24.198914%, 66.503906%, 78.067017%)" offset="0.773438"/><stop stop-opacity="1" stop-color="rgb(23.817444%, 66.349792%, 77.920532%)" offset="0.78125"/><stop stop-opacity="1" stop-color="rgb(23.435974%, 66.195679%, 77.772522%)" offset="0.789062"/><stop stop-opacity="1" stop-color="rgb(23.054504%, 66.041565%, 77.626038%)" offset="0.796875"/><stop stop-opacity="1" stop-color="rgb(22.673035%, 65.887451%, 77.479553%)" offset="0.804688"/><stop stop-opacity="1" stop-color="rgb(22.290039%, 65.734863%, 77.331543%)" offset="0.8125"/><stop stop-opacity="1" stop-color="rgb(21.908569%, 65.58075%, 77.185059%)" offset="0.820312"/><stop stop-opacity="1" stop-color="rgb(21.5271%, 65.426636%, 77.037048%)" offset="0.828125"/><stop stop-opacity="1" stop-color="rgb(21.14563%, 65.272522%, 76.890564%)" offset="0.835938"/><stop stop-opacity="1" stop-color="rgb(20.76416%, 65.118408%, 76.74408%)" offset="0.84375"/><stop stop-opacity="1" stop-color="rgb(20.38269%, 64.964294%, 76.596069%)" offset="0.851562"/><stop stop-opacity="1" stop-color="rgb(20.001221%, 64.810181%, 76.449585%)" offset="0.859375"/><stop stop-opacity="1" stop-color="rgb(19.618225%, 64.656067%, 76.303101%)" offset="0.867188"/><stop stop-opacity="1" stop-color="rgb(19.236755%, 64.501953%, 76.15509%)" offset="0.875"/><stop stop-opacity="1" stop-color="rgb(18.855286%, 64.347839%, 76.008606%)" offset="0.882812"/><stop stop-opacity="1" stop-color="rgb(18.473816%, 64.193726%, 75.860596%)" offset="0.890625"/><stop stop-opacity="1" stop-color="rgb(18.092346%, 64.039612%, 75.714111%)" offset="0.898438"/><stop stop-opacity="1" stop-color="rgb(17.710876%, 63.885498%, 75.567627%)" offset="0.90625"/><stop stop-opacity="1" stop-color="rgb(17.327881%, 63.731384%, 75.419617%)" offset="0.914062"/><stop stop-opacity="1" stop-color="rgb(16.946411%, 63.577271%, 75.273132%)" offset="0.921875"/><stop stop-opacity="1" stop-color="rgb(16.564941%, 63.423157%, 75.126648%)" offset="0.929688"/><stop stop-opacity="1" stop-color="rgb(16.183472%, 63.269043%, 74.978638%)" offset="0.9375"/><stop stop-opacity="1" stop-color="rgb(15.802002%, 63.114929%, 74.832153%)" offset="0.945312"/><stop stop-opacity="1" stop-color="rgb(15.420532%, 62.960815%, 74.684143%)" offset="0.953125"/><stop stop-opacity="1" stop-color="rgb(15.039062%, 62.806702%, 74.537659%)" offset="0.960938"/><stop stop-opacity="1" stop-color="rgb(14.656067%, 62.652588%, 74.391174%)" offset="0.96875"/><stop stop-opacity="1" stop-color="rgb(14.274597%, 62.498474%, 74.243164%)" offset="0.976562"/><stop stop-opacity="1" stop-color="rgb(13.893127%, 62.34436%, 74.09668%)" offset="0.984375"/><stop stop-opacity="1" stop-color="rgb(13.511658%, 62.190247%, 73.950195%)" offset="0.992188"/><stop stop-opacity="1" stop-color="rgb(13.130188%, 62.036133%, 73.802185%)" offset="1"/></linearGradient><clipPath id="26985034aa"><path d="M 780 994 L 1125 994 L 1125 1340 L 780 1340 Z M 780 994 " clip-rule="nonzero"/></clipPath><clipPath id="69e4eb83b1"><path d="M 1124.691406 1166.988281 C 1124.691406 1169.804688 1124.625 1172.621094 1124.484375 1175.4375 C 1124.347656 1178.25 1124.140625 1181.058594 1123.863281 1183.863281 C 1123.585938 1186.667969 1123.242188 1189.464844 1122.828125 1192.25 C 1122.414062 1195.039062 1121.933594 1197.8125 1121.382812 1200.578125 C 1120.835938 1203.339844 1120.21875 1206.089844 1119.53125 1208.820312 C 1118.847656 1211.554688 1118.097656 1214.269531 1117.277344 1216.964844 C 1116.460938 1219.664062 1115.578125 1222.335938 1114.628906 1224.988281 C 1113.675781 1227.644531 1112.664062 1230.269531 1111.585938 1232.875 C 1110.507812 1235.476562 1109.367188 1238.054688 1108.160156 1240.601562 C 1106.957031 1243.148438 1105.6875 1245.664062 1104.359375 1248.148438 C 1103.03125 1250.632812 1101.644531 1253.082031 1100.195312 1255.5 C 1098.746094 1257.917969 1097.238281 1260.296875 1095.671875 1262.640625 C 1094.109375 1264.984375 1092.484375 1267.285156 1090.808594 1269.550781 C 1089.128906 1271.8125 1087.394531 1274.03125 1085.605469 1276.210938 C 1083.820312 1278.390625 1081.980469 1280.523438 1080.085938 1282.609375 C 1078.195312 1284.699219 1076.253906 1286.738281 1074.257812 1288.730469 C 1072.265625 1290.722656 1070.226562 1292.664062 1068.136719 1294.558594 C 1066.050781 1296.449219 1063.917969 1298.289062 1061.738281 1300.078125 C 1059.5625 1301.863281 1057.339844 1303.597656 1055.078125 1305.277344 C 1052.8125 1306.953125 1050.507812 1308.574219 1048.167969 1310.140625 C 1045.824219 1311.707031 1043.441406 1313.214844 1041.027344 1314.664062 C 1038.609375 1316.109375 1036.15625 1317.5 1033.671875 1318.828125 C 1031.1875 1320.15625 1028.671875 1321.421875 1026.125 1322.628906 C 1023.578125 1323.832031 1021 1324.972656 1018.398438 1326.050781 C 1015.792969 1327.128906 1013.164062 1328.144531 1010.511719 1329.09375 C 1007.859375 1330.042969 1005.183594 1330.925781 1002.488281 1331.742188 C 999.789062 1332.5625 997.074219 1333.3125 994.339844 1333.996094 C 991.609375 1334.683594 988.859375 1335.300781 986.09375 1335.847656 C 983.332031 1336.398438 980.554688 1336.878906 977.769531 1337.292969 C 974.980469 1337.707031 972.183594 1338.050781 969.378906 1338.328125 C 966.578125 1338.605469 963.765625 1338.8125 960.953125 1338.949219 C 958.136719 1339.089844 955.320312 1339.15625 952.503906 1339.15625 C 949.683594 1339.15625 946.867188 1339.089844 944.054688 1338.949219 C 941.238281 1338.8125 938.429688 1338.605469 935.625 1338.328125 C 932.820312 1338.050781 930.023438 1337.707031 927.238281 1337.292969 C 924.449219 1336.878906 921.675781 1336.398438 918.910156 1335.847656 C 916.148438 1335.300781 913.398438 1334.683594 910.664062 1333.996094 C 907.929688 1333.3125 905.214844 1332.5625 902.519531 1331.742188 C 899.824219 1330.925781 897.148438 1330.042969 894.496094 1329.09375 C 891.839844 1328.144531 889.210938 1327.128906 886.609375 1326.050781 C 884.003906 1324.972656 881.429688 1323.832031 878.882812 1322.628906 C 876.335938 1321.421875 873.820312 1320.15625 871.332031 1318.828125 C 868.847656 1317.5 866.398438 1316.109375 863.980469 1314.664062 C 861.5625 1313.214844 859.183594 1311.707031 856.839844 1310.140625 C 854.496094 1308.574219 852.195312 1306.953125 849.929688 1305.277344 C 847.667969 1303.597656 845.445312 1301.863281 843.265625 1300.078125 C 841.089844 1298.289062 838.957031 1296.449219 836.867188 1294.558594 C 834.78125 1292.664062 832.738281 1290.722656 830.746094 1288.730469 C 828.753906 1286.738281 826.8125 1284.699219 824.917969 1282.609375 C 823.027344 1280.523438 821.1875 1278.390625 819.398438 1276.210938 C 817.613281 1274.03125 815.878906 1271.8125 814.199219 1269.550781 C 812.519531 1267.285156 810.898438 1264.984375 809.332031 1262.640625 C 807.765625 1260.296875 806.261719 1257.917969 804.8125 1255.5 C 803.363281 1253.082031 801.972656 1250.632812 800.644531 1248.148438 C 799.316406 1245.664062 798.050781 1243.148438 796.847656 1240.601562 C 795.640625 1238.054688 794.5 1235.476562 793.421875 1232.875 C 792.34375 1230.269531 791.328125 1227.644531 790.378906 1224.988281 C 789.429688 1222.335938 788.546875 1219.664062 787.726562 1216.964844 C 786.910156 1214.269531 786.160156 1211.554688 785.472656 1208.820312 C 784.789062 1206.089844 784.171875 1203.339844 783.621094 1200.578125 C 783.074219 1197.8125 782.589844 1195.039062 782.175781 1192.25 C 781.765625 1189.464844 781.417969 1186.667969 781.144531 1183.863281 C 780.867188 1181.058594 780.660156 1178.25 780.519531 1175.4375 C 780.382812 1172.621094 780.3125 1169.804688 780.3125 1166.988281 C 780.3125 1164.171875 780.382812 1161.355469 780.519531 1158.539062 C 780.660156 1155.726562 780.867188 1152.917969 781.144531 1150.113281 C 781.417969 1147.308594 781.765625 1144.511719 782.175781 1141.726562 C 782.589844 1138.9375 783.074219 1136.164062 783.621094 1133.398438 C 784.171875 1130.636719 784.789062 1127.886719 785.472656 1125.15625 C 786.160156 1122.421875 786.910156 1119.707031 787.726562 1117.011719 C 788.546875 1114.3125 789.429688 1111.640625 790.378906 1108.988281 C 791.328125 1106.332031 792.34375 1103.707031 793.421875 1101.101562 C 794.5 1098.5 795.640625 1095.921875 796.847656 1093.375 C 798.050781 1090.828125 799.316406 1088.3125 800.644531 1085.828125 C 801.972656 1083.34375 803.363281 1080.894531 804.8125 1078.476562 C 806.261719 1076.058594 807.765625 1073.679688 809.332031 1071.335938 C 810.898438 1068.992188 812.519531 1066.691406 814.199219 1064.425781 C 815.878906 1062.164062 817.613281 1059.945312 819.398438 1057.765625 C 821.1875 1055.585938 823.027344 1053.453125 824.917969 1051.367188 C 826.8125 1049.277344 828.753906 1047.238281 830.746094 1045.246094 C 832.738281 1043.253906 834.78125 1041.3125 836.867188 1039.417969 C 838.957031 1037.527344 841.089844 1035.6875 843.265625 1033.898438 C 845.445312 1032.113281 847.667969 1030.378906 849.929688 1028.699219 C 852.195312 1027.023438 854.496094 1025.402344 856.839844 1023.835938 C 859.183594 1022.269531 861.5625 1020.761719 863.980469 1019.3125 C 866.398438 1017.867188 868.847656 1016.476562 871.332031 1015.148438 C 873.820312 1013.820312 876.335938 1012.554688 878.882812 1011.351562 C 881.429688 1010.144531 884.003906 1009.003906 886.609375 1007.925781 C 889.210938 1006.847656 891.839844 1005.832031 894.496094 1004.882812 C 897.148438 1003.933594 899.824219 1003.050781 902.519531 1002.234375 C 905.214844 1001.414062 907.929688 1000.664062 910.664062 999.980469 C 913.398438 999.292969 916.148438 998.675781 918.910156 998.128906 C 921.675781 997.578125 924.449219 997.097656 927.238281 996.683594 C 930.023438 996.269531 932.820312 995.925781 935.625 995.648438 C 938.429688 995.371094 941.238281 995.164062 944.054688 995.027344 C 946.867188 994.890625 949.683594 994.820312 952.503906 994.820312 C 955.320312 994.820312 958.136719 994.890625 960.953125 995.027344 C 963.765625 995.164062 966.578125 995.371094 969.378906 995.648438 C 972.183594 995.925781 974.980469 996.269531 977.769531 996.683594 C 980.554688 997.097656 983.332031 997.578125 986.09375 998.128906 C 988.859375 998.675781 991.609375 999.292969 994.339844 999.980469 C 997.074219 1000.664062 999.789062 1001.414062 1002.488281 1002.234375 C 1005.183594 1003.050781 1007.859375 1003.933594 1010.511719 1004.882812 C 1013.164062 1005.832031 1015.792969 1006.847656 1018.398438 1007.925781 C 1021 1009.003906 1023.578125 1010.144531 1026.125 1011.347656 C 1028.671875 1012.554688 1031.1875 1013.820312 1033.671875 1015.148438 C 1036.15625 1016.476562 1038.609375 1017.867188 1041.027344 1019.3125 C 1043.441406 1020.761719 1045.824219 1022.269531 1048.167969 1023.835938 C 1050.507812 1025.402344 1052.8125 1027.023438 1055.078125 1028.699219 C 1057.339844 1030.378906 1059.5625 1032.113281 1061.738281 1033.898438 C 1063.917969 1035.6875 1066.050781 1037.527344 1068.136719 1039.417969 C 1070.226562 1041.3125 1072.265625 1043.253906 1074.257812 1045.246094 C 1076.253906 1047.238281 1078.195312 1049.277344 1080.085938 1051.367188 C 1081.980469 1053.453125 1083.820312 1055.585938 1085.605469 1057.765625 C 1087.394531 1059.945312 1089.128906 1062.164062 1090.808594 1064.425781 C 1092.484375 1066.691406 1094.109375 1068.992188 1095.671875 1071.335938 C 1097.238281 1073.679688 1098.746094 1076.058594 1100.195312 1078.476562 C 1101.644531 1080.894531 1103.03125 1083.34375 1104.359375 1085.828125 C 1105.6875 1088.3125 1106.957031 1090.828125 1108.160156 1093.375 C 1109.363281 1095.921875 1110.507812 1098.5 1111.585938 1101.101562 C 1112.664062 1103.707031 1113.675781 1106.332031 1114.628906 1108.988281 C 1115.578125 1111.640625 1116.460938 1114.3125 1117.277344 1117.011719 C 1118.097656 1119.707031 1118.847656 1122.421875 1119.53125 1125.15625 C 1120.21875 1127.886719 1120.835938 1130.636719 1121.382812 1133.398438 C 1121.933594 1136.164062 1122.414062 1138.9375 1122.828125 1141.726562 C 1123.242188 1144.511719 1123.585938 1147.308594 1123.863281 1150.113281 C 1124.140625 1152.917969 1124.347656 1155.726562 1124.484375 1158.539062 C 1124.625 1161.355469 1124.691406 1164.171875 1124.691406 1166.988281 Z M 1124.691406 1166.988281 " clip-rule="nonzero"/></clipPath><linearGradient x1="120.999999" gradientTransform="matrix(6.622666, 0, 0, 6.621874, -27.651258, 200.194791)" y1="120.999999" x2="172.999999" gradientUnits="userSpaceOnUse" y2="172.999999" id="ce3182458f"><stop stop-opacity="1" stop-color="rgb(99.972534%, 71.432495%, 1.159668%)" offset="0"/><stop stop-opacity="1" stop-color="rgb(99.961853%, 71.299744%, 1.150513%)" offset="0.015625"/><stop stop-opacity="1" stop-color="rgb(99.940491%, 71.034241%, 1.135254%)" offset="0.03125"/><stop stop-opacity="1" stop-color="rgb(99.919128%, 70.768738%, 1.119995%)" offset="0.046875"/><stop stop-opacity="1" stop-color="rgb(99.899292%, 70.503235%, 1.10321%)" offset="0.0625"/><stop stop-opacity="1" stop-color="rgb(99.87793%, 70.237732%, 1.087952%)" offset="0.078125"/><stop stop-opacity="1" stop-color="rgb(99.856567%, 69.972229%, 1.071167%)" offset="0.09375"/><stop stop-opacity="1" stop-color="rgb(99.835205%, 69.706726%, 1.055908%)" offset="0.109375"/><stop stop-opacity="1" stop-color="rgb(99.813843%, 69.441223%, 1.039124%)" offset="0.125"/><stop stop-opacity="1" stop-color="rgb(99.79248%, 69.177246%, 1.023865%)" offset="0.140625"/><stop stop-opacity="1" stop-color="rgb(99.771118%, 68.911743%, 1.00708%)" offset="0.15625"/><stop stop-opacity="1" stop-color="rgb(99.749756%, 68.64624%, 0.991821%)" offset="0.171875"/><stop stop-opacity="1" stop-color="rgb(99.728394%, 68.380737%, 0.975037%)" offset="0.1875"/><stop stop-opacity="1" stop-color="rgb(99.707031%, 68.115234%, 0.959778%)" offset="0.203125"/><stop stop-opacity="1" stop-color="rgb(99.685669%, 67.849731%, 0.942993%)" offset="0.21875"/><stop stop-opacity="1" stop-color="rgb(99.664307%, 67.584229%, 0.927734%)" offset="0.234375"/><stop stop-opacity="1" stop-color="rgb(99.642944%, 67.318726%, 0.91095%)" offset="0.25"/><stop stop-opacity="1" stop-color="rgb(99.621582%, 67.053223%, 0.895691%)" offset="0.265625"/><stop stop-opacity="1" stop-color="rgb(99.60022%, 66.78772%, 0.878906%)" offset="0.28125"/><stop stop-opacity="1" stop-color="rgb(99.580383%, 66.522217%, 0.863647%)" offset="0.296875"/><stop stop-opacity="1" stop-color="rgb(99.559021%, 66.256714%, 0.846863%)" offset="0.3125"/><stop stop-opacity="1" stop-color="rgb(99.537659%, 65.991211%, 0.831604%)" offset="0.328125"/><stop stop-opacity="1" stop-color="rgb(99.516296%, 65.725708%, 0.816345%)" offset="0.34375"/><stop stop-opacity="1" stop-color="rgb(99.494934%, 65.460205%, 0.799561%)" offset="0.359375"/><stop stop-opacity="1" stop-color="rgb(99.473572%, 65.194702%, 0.784302%)" offset="0.375"/><stop stop-opacity="1" stop-color="rgb(99.452209%, 64.929199%, 0.767517%)" offset="0.390625"/><stop stop-opacity="1" stop-color="rgb(99.430847%, 64.663696%, 0.752258%)" offset="0.40625"/><stop stop-opacity="1" stop-color="rgb(99.409485%, 64.399719%, 0.735474%)" offset="0.421875"/><stop stop-opacity="1" stop-color="rgb(99.388123%, 64.134216%, 0.720215%)" offset="0.4375"/><stop stop-opacity="1" stop-color="rgb(99.36676%, 63.868713%, 0.70343%)" offset="0.453125"/><stop stop-opacity="1" stop-color="rgb(99.345398%, 63.60321%, 0.688171%)" offset="0.46875"/><stop stop-opacity="1" stop-color="rgb(99.324036%, 63.337708%, 0.671387%)" offset="0.484375"/><stop stop-opacity="1" stop-color="rgb(99.302673%, 63.072205%, 0.656128%)" offset="0.5"/><stop stop-opacity="1" stop-color="rgb(99.291992%, 62.939453%, 0.648499%)" offset="0.5"/><stop stop-opacity="1" stop-color="rgb(99.281311%, 62.806702%, 0.639343%)" offset="0.5"/><stop stop-opacity="1" stop-color="rgb(99.272156%, 62.67395%, 0.631714%)" offset="0.515625"/><stop stop-opacity="1" stop-color="rgb(99.261475%, 62.541199%, 0.624084%)" offset="0.53125"/><stop stop-opacity="1" stop-color="rgb(99.240112%, 62.275696%, 0.6073%)" offset="0.546875"/><stop stop-opacity="1" stop-color="rgb(99.21875%, 62.010193%, 0.592041%)" offset="0.5625"/><stop stop-opacity="1" stop-color="rgb(99.197388%, 61.74469%, 0.575256%)" offset="0.578125"/><stop stop-opacity="1" stop-color="rgb(99.176025%, 61.479187%, 0.559998%)" offset="0.59375"/><stop stop-opacity="1" stop-color="rgb(99.154663%, 61.213684%, 0.544739%)" offset="0.609375"/><stop stop-opacity="1" stop-color="rgb(99.133301%, 60.948181%, 0.527954%)" offset="0.625"/><stop stop-opacity="1" stop-color="rgb(99.111938%, 60.682678%, 0.512695%)" offset="0.640625"/><stop stop-opacity="1" stop-color="rgb(99.090576%, 60.417175%, 0.495911%)" offset="0.65625"/><stop stop-opacity="1" stop-color="rgb(99.069214%, 60.151672%, 0.480652%)" offset="0.671875"/><stop stop-opacity="1" stop-color="rgb(99.047852%, 59.886169%, 0.463867%)" offset="0.6875"/><stop stop-opacity="1" stop-color="rgb(99.026489%, 59.622192%, 0.448608%)" offset="0.703125"/><stop stop-opacity="1" stop-color="rgb(99.005127%, 59.356689%, 0.431824%)" offset="0.71875"/><stop stop-opacity="1" stop-color="rgb(98.983765%, 59.091187%, 0.416565%)" offset="0.734375"/><stop stop-opacity="1" stop-color="rgb(98.962402%, 58.825684%, 0.39978%)" offset="0.75"/><stop stop-opacity="1" stop-color="rgb(98.942566%, 58.560181%, 0.384521%)" offset="0.765625"/><stop stop-opacity="1" stop-color="rgb(98.921204%, 58.294678%, 0.367737%)" offset="0.78125"/><stop stop-opacity="1" stop-color="rgb(98.899841%, 58.029175%, 0.352478%)" offset="0.796875"/><stop stop-opacity="1" stop-color="rgb(98.878479%, 57.763672%, 0.335693%)" offset="0.8125"/><stop stop-opacity="1" stop-color="rgb(98.857117%, 57.498169%, 0.320435%)" offset="0.828125"/><stop stop-opacity="1" stop-color="rgb(98.835754%, 57.232666%, 0.30365%)" offset="0.84375"/><stop stop-opacity="1" stop-color="rgb(98.814392%, 56.967163%, 0.288391%)" offset="0.859375"/><stop stop-opacity="1" stop-color="rgb(98.79303%, 56.70166%, 0.271606%)" offset="0.875"/><stop stop-opacity="1" stop-color="rgb(98.771667%, 56.436157%, 0.256348%)" offset="0.890625"/><stop stop-opacity="1" stop-color="rgb(98.750305%, 56.170654%, 0.241089%)" offset="0.90625"/><stop stop-opacity="1" stop-color="rgb(98.728943%, 55.905151%, 0.224304%)" offset="0.921875"/><stop stop-opacity="1" stop-color="rgb(98.707581%, 55.639648%, 0.209045%)" offset="0.9375"/><stop stop-opacity="1" stop-color="rgb(98.686218%, 55.374146%, 0.192261%)" offset="0.953125"/><stop stop-opacity="1" stop-color="rgb(98.664856%, 55.108643%, 0.177002%)" offset="0.96875"/><stop stop-opacity="1" stop-color="rgb(98.643494%, 54.844666%, 0.160217%)" offset="0.984375"/><stop stop-opacity="1" stop-color="rgb(98.623657%, 54.579163%, 0.144958%)" offset="1"/></linearGradient></defs><g clip-path="url(#e9c71ee55b)"><g clip-path="url(#52e0823011)"><path fill="url(#a5eda34a52)" d="M 104.800781 332.632812 L 104.800781 1392.132812 L 1164.429688 1392.132812 L 1164.429688 332.632812 Z M 104.800781 332.632812 " fill-rule="nonzero"/></g></g><path stroke-linecap="butt" transform="matrix(6.622666, 0, 0, 6.621874, -27.651256, 200.194759)" fill-opacity="1" fill="#ffffff" fill-rule="nonzero" stroke-linejoin="miter" d="M 66.000092 57.999736 L 133.999874 57.999736 C 134.261759 57.999736 134.523644 58.012714 134.784349 58.03867 C 135.045054 58.064035 135.303989 58.102379 135.560566 58.1537 C 135.817732 58.205022 136.071359 58.268141 136.322037 58.344238 C 136.573305 58.420336 136.819264 58.508821 137.061684 58.609104 C 137.303515 58.709387 137.540037 58.820878 137.77125 58.944758 C 138.002464 59.068047 138.226599 59.202544 138.444837 59.34825 C 138.662484 59.493955 138.872464 59.649689 139.075365 59.816041 C 139.277677 59.982393 139.471731 60.157594 139.656938 60.343413 C 139.842145 60.528642 140.017914 60.722129 140.184247 60.925055 C 140.350579 61.127391 140.506294 61.337396 140.651982 61.555659 C 140.79708 61.773333 140.931562 61.997495 141.055426 62.228736 C 141.178701 62.459977 141.290768 62.696528 141.39104 62.938387 C 141.491311 63.180836 141.579196 63.426825 141.655284 63.677533 C 141.731372 63.928241 141.795073 64.182488 141.846389 64.439095 C 141.897114 64.696292 141.936043 64.955259 141.961406 65.215995 C 141.987358 65.476731 141.999745 65.738057 141.999745 65.999973 L 141.999745 120.000097 C 141.999745 120.262013 141.987358 120.523339 141.961406 120.784076 C 141.936043 121.044812 141.897114 121.303778 141.846389 121.560975 C 141.795073 121.817582 141.731372 122.071829 141.655284 122.322537 C 141.579196 122.573245 141.491311 122.819234 141.39104 123.061683 C 141.290768 123.303543 141.178701 123.540093 141.055426 123.771334 C 140.931562 124.001985 140.79708 124.226738 140.651982 124.444411 C 140.506294 124.662675 140.350579 124.872679 140.184247 125.075015 C 140.017914 125.277941 139.842145 125.471429 139.656938 125.656658 C 139.471731 125.841887 139.277677 126.017677 139.075365 126.184029 C 138.872464 126.350381 138.662484 126.506115 138.444837 126.651821 C 138.226599 126.797526 138.002464 126.932024 137.77125 127.055313 C 137.540037 127.178602 137.303515 127.290683 137.061684 127.390966 C 136.819264 127.49125 136.573305 127.579735 136.322037 127.655242 C 136.071359 127.731339 135.817732 127.795049 135.560566 127.84637 C 135.303989 127.897101 135.045054 127.936035 134.784349 127.961401 C 134.523644 127.987356 134.261759 127.999744 133.999874 127.999744 L 66.000092 127.999744 C 65.738208 127.999744 65.476913 127.987356 65.215618 127.961401 C 64.954913 127.936035 64.695977 127.897101 64.439401 127.84637 C 64.182235 127.795049 63.928608 127.731339 63.67793 127.655242 C 63.427252 127.579735 63.180703 127.49125 62.938283 127.390966 C 62.696452 127.290683 62.45993 127.178602 62.228717 127.055313 C 61.997503 126.932024 61.773368 126.797526 61.55572 126.651821 C 61.337483 126.506115 61.127503 126.350381 60.924602 126.184029 C 60.72229 126.017677 60.528235 125.841887 60.343029 125.656658 C 60.157822 125.471429 59.982052 125.277941 59.81572 125.075015 C 59.649978 124.872679 59.493673 124.662675 59.347985 124.444411 C 59.202886 124.226738 59.068405 124.001985 58.944541 123.771334 C 58.821266 123.540093 58.709198 123.303543 58.608927 123.061683 C 58.508656 122.819234 58.420771 122.573245 58.344683 122.322537 C 58.268595 122.071829 58.204893 121.817582 58.153578 121.560975 C 58.102853 121.303778 58.063924 121.044812 58.038561 120.784076 C 58.012609 120.523339 58.000222 120.262013 58.000222 120.000097 L 58.000222 65.999973 C 58.000222 65.738057 58.012609 65.476731 58.038561 65.215995 C 58.063924 64.955259 58.102853 64.696292 58.153578 64.439095 C 58.204893 64.182488 58.268595 63.928241 58.344683 63.677533 C 58.420771 63.426825 58.508656 63.180836 58.608927 62.938387 C 58.709198 62.696528 58.821266 62.459977 58.944541 62.228736 C 59.068405 61.997495 59.202886 61.773333 59.347985 61.555659 C 59.493673 61.337396 59.649978 61.127391 59.81572 60.925055 C 59.982052 60.722129 60.157822 60.528642 60.343029 60.343413 C 60.528235 60.157594 60.72229 59.982393 60.924602 59.816041 C 61.127503 59.649689 61.337483 59.493955 61.55572 59.34825 C 61.773368 59.202544 61.997503 59.068047 62.228717 58.944758 C 62.45993 58.820878 62.696452 58.709387 62.938283 58.609104 C 63.180703 58.508821 63.427252 58.420336 63.67793 58.344238 C 63.928608 58.268141 64.182235 58.205022 64.439401 58.1537 C 64.695977 58.102379 64.954913 58.064035 65.215618 58.03867 C 65.476913 58.012714 65.738208 57.999736 66.000092 57.999736 Z M 66.000092 57.999736 " stroke="#023047" stroke-width="4" stroke-opacity="1" stroke-miterlimit="4"/><path stroke-linecap="butt" transform="matrix(6.622666, 0, 0, 6.621874, -27.651256, 200.194759)" fill="none" stroke-linejoin="round" d="M 51.999877 60.00009 L 100.000278 34.000205 L 148.00009 60.00009 " stroke="#023047" stroke-width="4" stroke-opacity="1" stroke-miterlimit="4"/><path fill="#023047" d="M 594.878906 849.136719 L 674.351562 849.136719 L 674.351562 1047.792969 L 594.878906 1047.792969 Z M 594.878906 849.136719 " fill-opacity="1" fill-rule="nonzero"/><path stroke-linecap="butt" transform="matrix(6.622666, 0, 0, 6.621874, -27.651256, 200.194759)" fill-opacity="1" fill="#8ecae6" fill-rule="nonzero" stroke-linejoin="miter" d="M 69.999733 74.00021 L 81.999833 74.00021 L 81.999833 85.999975 L 69.999733 85.999975 Z M 69.999733 74.00021 " stroke="#023047" stroke-width="3" stroke-opacity="1" stroke-miterlimit="4"/><path stroke-linecap="butt" transform="matrix(6.622666, 0, 0, 6.621874, -27.651256, 200.194759)" fill-opacity="1" fill="#8ecae6" fill-rule="nonzero" stroke-linejoin="miter" d="M 118.000134 74.00021 L 130.000234 74.00021 L 130.000234 85.999975 L 118.000134 85.999975 Z M 118.000134 74.00021 " stroke="#023047" stroke-width="3" stroke-opacity="1" stroke-miterlimit="4"/><path stroke-linecap="butt" transform="matrix(6.622666, 0, 0, 6.621874, -27.651256, 200.194759)" fill-opacity="1" fill="#ffffff" fill-rule="nonzero" stroke-linejoin="miter" d="M 141.999745 141.999864 C 141.999745 142.26178 141.983229 142.523696 141.949609 142.785022 C 141.915399 143.046348 141.865263 143.307674 141.798023 143.568411 C 141.730192 143.829147 141.646436 144.088703 141.545575 144.34767 C 141.444714 144.606636 141.327338 144.864423 141.192857 145.12162 C 141.058965 145.378227 140.908558 145.633654 140.741046 145.887901 C 140.574124 146.141559 140.391277 146.394036 140.191324 146.644744 C 139.991962 146.894862 139.776674 147.1438 139.54487 147.390379 C 139.313067 147.636957 139.065928 147.881176 138.802864 148.123036 C 138.539799 148.364895 138.261399 148.604395 137.967664 148.840945 C 137.673928 149.077496 137.364857 149.311686 137.04045 149.542338 C 136.716633 149.772989 136.378071 150.001281 136.024762 150.225443 C 135.671454 150.450195 135.3034 150.671408 134.921779 150.889081 C 134.539569 151.106755 134.144383 151.320889 133.734451 151.531484 C 133.325108 151.741488 132.9022 151.947954 132.466315 152.15029 C 132.030431 152.352626 131.58157 152.550832 131.119732 152.74491 C 130.658485 152.938987 130.184261 153.128346 129.698241 153.313574 C 129.212221 153.498803 128.714994 153.679313 128.20538 153.855104 C 127.696356 154.030894 127.176126 154.201965 126.644689 154.368317 C 126.113252 154.53408 125.571197 154.695122 125.019116 154.851446 C 124.467035 155.00718 123.905516 155.158195 123.333971 155.30331 C 122.762425 155.449016 122.182032 155.588822 121.592201 155.72391 C 121.002961 155.858407 120.404873 155.987006 119.798527 156.110885 C 119.192181 156.234174 118.578758 156.351564 117.957076 156.463646 C 117.335985 156.575727 116.707815 156.681909 116.072568 156.782192 C 115.43791 156.882475 114.796765 156.97627 114.149131 157.064755 C 113.502087 157.15265 112.849734 157.235236 112.192074 157.310743 C 111.534413 157.386841 110.872033 157.457039 110.204935 157.520748 C 109.538426 157.583868 108.867789 157.641678 108.193613 157.692409 C 107.519437 157.743731 106.842311 157.788563 106.162827 157.826907 C 105.482752 157.86525 104.800908 157.897105 104.116705 157.923061 C 103.432502 157.948426 102.747119 157.967893 102.060556 157.980871 C 101.374583 157.993849 100.687431 157.999748 100.000278 157.999748 C 99.312536 157.999748 98.625973 157.993849 97.939411 157.980871 C 97.252848 157.967893 96.567465 157.948426 95.883262 157.923061 C 95.199059 157.897105 94.517215 157.86525 93.83714 157.826907 C 93.157655 157.788563 92.48053 157.743731 91.806354 157.692409 C 91.132178 157.641678 90.46154 157.583868 89.795032 157.520748 C 89.127934 157.457039 88.465554 157.386841 87.807893 157.310743 C 87.150232 157.235236 86.49788 157.15265 85.850836 157.064755 C 85.203202 156.97627 84.562056 156.882475 83.927399 156.782192 C 83.292151 156.681909 82.663982 156.575727 82.042891 156.463646 C 81.421209 156.351564 80.807786 156.234174 80.20144 156.110885 C 79.595094 155.987006 78.997006 155.858407 78.407766 155.72391 C 77.817935 155.588822 77.237542 155.449016 76.665996 155.30331 C 76.094451 155.158195 75.532932 155.00718 74.980851 154.851446 C 74.428769 154.695122 73.886715 154.53408 73.355278 154.368317 C 72.824431 154.201965 72.30361 154.030894 71.794587 153.855104 C 71.284973 153.679313 70.787746 153.498803 70.301726 153.313574 C 69.815706 153.128346 69.341482 152.938987 68.880235 152.74491 C 68.418397 152.550832 67.969536 152.352626 67.533652 152.15029 C 67.097767 151.947954 66.674858 151.741488 66.265516 151.531484 C 65.855584 151.320889 65.460398 151.106755 65.078187 150.889081 C 64.696567 150.671408 64.328513 150.450195 63.975205 150.225443 C 63.621896 150.001281 63.283333 149.772989 62.959517 149.542338 C 62.63511 149.311686 62.326039 149.077496 62.032303 148.840945 C 61.738568 148.604395 61.460168 148.364895 61.197103 148.123036 C 60.934039 147.881176 60.6869 147.636957 60.455097 147.390379 C 60.223293 147.1438 60.008005 146.894862 59.808642 146.644744 C 59.60869 146.394036 59.425842 146.141559 59.25892 145.887901 C 59.091409 145.633654 58.941002 145.378227 58.80711 145.12162 C 58.672629 144.864423 58.555253 144.606636 58.454392 144.34767 C 58.353531 144.088703 58.269775 143.829147 58.202534 143.568411 C 58.134704 143.307674 58.084568 143.046348 58.050358 142.785022 C 58.016737 142.523696 58.000222 142.26178 58.000222 141.999864 C 58.000222 141.737948 58.016737 141.476622 58.050358 141.214706 C 58.084568 140.95338 58.134704 140.692053 58.202534 140.431907 C 58.269775 140.171171 58.353531 139.911614 58.454392 139.652058 C 58.555253 139.393091 58.672629 139.135305 58.80711 138.878698 C 58.941002 138.621501 59.091409 138.366074 59.25892 138.112416 C 59.425842 137.858169 59.60869 137.606281 59.808642 137.355574 C 60.008005 137.104866 60.223293 136.856517 60.455097 136.609939 C 60.6869 136.36336 60.934039 136.119141 61.197103 135.877282 C 61.460168 135.635422 61.738568 135.395923 62.032303 135.159372 C 62.326039 134.922232 62.63511 134.688631 62.959517 134.45739 C 63.283333 134.226739 63.621896 133.999037 63.975205 133.774285 C 64.328513 133.549533 64.696567 133.32832 65.078187 133.110646 C 65.460398 132.892973 65.855584 132.678839 66.265516 132.468834 C 66.674858 132.258239 67.097767 132.052364 67.533652 131.849438 C 67.969536 131.647102 68.418397 131.448895 68.880235 131.254818 C 69.341482 131.06074 69.815706 130.871382 70.301726 130.686153 C 70.787746 130.500924 71.284973 130.320415 71.794587 130.144624 C 72.30361 129.968834 72.824431 129.797762 73.355278 129.632 C 73.886715 129.465648 74.428769 129.304605 74.980851 129.148871 C 75.532932 128.992548 76.094451 128.842123 76.665996 128.696417 C 77.237542 128.550712 77.817935 128.410905 78.407766 128.276408 C 78.997006 128.14191 79.595094 128.012722 80.20144 127.889433 C 80.807786 127.765554 81.421209 127.648163 82.042891 127.536082 C 82.663982 127.424001 83.292151 127.318409 83.927399 127.218125 C 84.562056 127.117842 85.203202 127.023458 85.850836 126.935563 C 86.49788 126.847078 87.150232 126.765082 87.807893 126.688984 C 88.465554 126.612887 89.127934 126.543279 89.795032 126.479569 C 90.46154 126.41586 91.132178 126.35864 91.806354 126.307318 C 92.48053 126.256587 93.157655 126.211754 93.83714 126.173411 C 94.517215 126.134477 95.199059 126.102623 95.883262 126.077257 C 96.567465 126.051301 97.252848 126.031835 97.939411 126.019447 C 98.625973 126.006469 99.312536 125.99998 100.000278 125.99998 C 100.687431 125.99998 101.374583 126.006469 102.060556 126.019447 C 102.747119 126.031835 103.432502 126.051301 104.116705 126.077257 C 104.800908 126.102623 105.482752 126.134477 106.162827 126.173411 C 106.842311 126.211754 107.519437 126.256587 108.193613 126.307318 C 108.867789 126.35864 109.538426 126.41586 110.204935 126.479569 C 110.872033 126.543279 111.534413 126.612887 112.192074 126.688984 C 112.849734 126.765082 113.502087 126.847078 114.149131 126.935563 C 114.796765 127.023458 115.43791 127.117842 116.072568 127.218125 C 116.707815 127.318409 117.335985 127.424001 117.957076 127.536082 C 118.578758 127.648163 119.192181 127.765554 119.798527 127.889433 C 120.404873 128.012722 121.002961 128.14191 121.592201 128.276408 C 122.182032 128.410905 122.762425 128.550712 123.333971 128.696417 C 123.905516 128.842123 124.467035 128.992548 125.019116 129.148871 C 125.571197 129.304605 126.113252 129.465648 126.644689 129.632 C 127.176126 129.797762 127.696356 129.968834 128.20538 130.144624 C 128.714994 130.320415 129.212221 130.500924 129.698241 130.686153 C 130.184261 130.871382 130.658485 131.06074 131.119732 131.254818 C 131.58157 131.448895 132.030431 131.647102 132.466315 131.849438 C 132.9022 132.052364 133.325108 132.258239 133.734451 132.468834 C 134.144383 132.678839 134.539569 132.892973 134.921779 133.110646 C 135.3034 133.32832 135.671454 133.549533 136.024762 133.774285 C 136.378071 133.999037 136.716633 134.226739 137.04045 134.45739 C 137.364857 134.688631 137.673928 134.922232 137.967664 135.159372 C 138.261399 135.395923 138.539799 135.635422 138.802864 135.877282 C 139.065928 136.119141 139.313067 136.36336 139.54487 136.609939 C 139.776674 136.856517 139.991962 137.104866 140.191324 137.355574 C 140.391277 137.606281 140.574124 137.858169 140.741046 138.112416 C 140.908558 138.366074 141.058965 138.621501 141.192857 138.878698 C 141.327338 139.135305 141.444714 139.393091 141.545575 139.652058 C 141.646436 139.911614 141.730192 140.171171 141.798023 140.431907 C 141.865263 140.692053 141.915399 140.95338 141.949609 141.214706 C 141.983229 141.476622 141.999745 141.737948 141.999745 141.999864 Z M 141.999745 141.999864 " stroke="#023047" stroke-width="4" stroke-opacity="1" stroke-miterlimit="4"/><path stroke-linecap="round" transform="matrix(6.622666, 0, 0, 6.621874, -27.651256, 200.194759)" fill="none" stroke-linejoin="miter" d="M 63.999977 141.999864 C 71.999848 135.000099 83.999948 131.999863 100.000278 131.999863 C 116.000019 131.999863 128.000119 135.000099 135.999989 141.999864 " stroke="#023047" stroke-width="3" stroke-opacity="1" stroke-miterlimit="4"/><path stroke-linecap="round" transform="matrix(6.622666, 0, 0, 6.621874, -27.651256, 200.194759)" fill="none" stroke-linejoin="miter" d="M 66.000092 141.999864 L 133.999874 141.999864 " stroke="#023047" stroke-width="3" stroke-opacity="1" stroke-miterlimit="4"/><g clip-path="url(#26985034aa)"><g clip-path="url(#69e4eb83b1)"><path fill="url(#ce3182458f)" d="M 780.3125 994.820312 L 780.3125 1339.15625 L 1124.691406 1339.15625 L 1124.691406 994.820312 Z M 780.3125 994.820312 " fill-rule="nonzero"/></g></g><path stroke-linecap="butt" transform="matrix(6.622666, 0, 0, 6.621874, -27.651256, 200.194759)" fill="none" stroke-linejoin="miter" d="M 173.999815 145.999982 C 173.999815 146.425301 173.989788 146.850619 173.968554 147.275938 C 173.94791 147.700667 173.916649 148.124806 173.874771 148.548354 C 173.832893 148.971903 173.780988 149.394272 173.718466 149.814872 C 173.655944 150.236061 173.583395 150.654891 173.500229 151.072541 C 173.417653 151.489601 173.32446 151.904891 173.220649 152.317232 C 173.117429 152.730162 173.004182 153.140144 172.880317 153.547175 C 172.757043 153.954797 172.623741 154.358289 172.480412 154.758832 C 172.336494 155.159964 172.183728 155.556378 172.020934 155.949842 C 171.858141 156.342716 171.685911 156.732051 171.503653 157.116666 C 171.321985 157.501281 171.13029 157.881178 170.929748 158.256355 C 170.729206 158.631532 170.519816 159.0014 170.300989 159.366548 C 170.082162 159.731697 169.854487 160.090947 169.617965 160.444887 C 169.382033 160.798828 169.136663 161.146279 168.883626 161.488422 C 168.629999 161.829975 168.368114 162.165038 168.097972 162.494203 C 167.82842 162.823368 167.550609 163.145454 167.264542 163.460461 C 166.979064 163.776058 166.685918 164.083986 166.384515 164.384836 C 166.083701 164.685685 165.77581 164.978866 165.46025 165.264968 C 165.145281 165.55048 164.823233 165.828323 164.494108 166.098498 C 164.165573 166.368083 163.829959 166.629999 163.488447 166.883656 C 163.146346 167.136724 162.798346 167.381533 162.445037 167.618083 C 162.091139 167.854633 161.731342 168.082335 161.366827 168.301188 C 161.001722 168.519452 160.631309 168.729456 160.256176 168.930023 C 159.881044 169.130589 159.501193 169.321717 159.116624 169.503996 C 158.732055 169.685686 158.342766 169.857937 157.949939 170.02075 C 157.556522 170.183562 157.159567 170.336936 156.759072 170.480282 C 156.358577 170.623628 155.954543 170.756946 155.54756 170.880235 C 155.139987 171.004114 154.730055 171.117375 154.317174 171.220608 C 153.904882 171.324431 153.489642 171.417635 153.072042 171.500221 C 152.655032 171.583397 152.235662 171.655955 151.815113 171.718485 C 151.393974 171.781014 150.971655 171.832925 150.548157 171.874808 C 150.125249 171.916691 149.700571 171.947956 149.275893 171.968603 C 148.850625 171.989839 148.425357 171.999867 148.00009 171.999867 C 147.574232 171.999867 147.148964 171.989839 146.724286 171.968603 C 146.299019 171.947956 145.874931 171.916691 145.451432 171.874808 C 145.027934 171.832925 144.605615 171.781014 144.185066 171.718485 C 143.763927 171.655955 143.345148 171.583397 142.927548 171.500221 C 142.510538 171.417635 142.095297 171.324431 141.682416 171.220608 C 141.269535 171.117375 140.859602 171.004114 140.452619 170.880235 C 140.045636 170.756946 139.641603 170.623628 139.241108 170.480282 C 138.840023 170.336936 138.443067 170.183562 138.05024 170.02075 C 137.656823 169.857937 137.268125 169.685686 136.883555 169.503996 C 136.498986 169.321717 136.119135 169.130589 135.743413 168.930023 C 135.368281 168.729456 134.998457 168.519452 134.633352 168.301188 C 134.268247 168.082335 133.90904 167.854633 133.555142 167.618083 C 133.201244 167.381533 132.853834 167.136724 132.511732 166.883656 C 132.17022 166.629999 131.834607 166.368083 131.505481 166.098498 C 131.176946 165.828323 130.854898 165.55048 130.539339 165.264968 C 130.22437 164.978866 129.915888 164.685685 129.615075 164.384836 C 129.314261 164.083986 129.021116 163.776058 128.735048 163.460461 C 128.44957 163.145454 128.17176 162.823368 127.901617 162.494203 C 127.632065 162.165038 127.37018 161.829975 127.116553 161.488422 C 126.862926 161.146279 126.618146 160.798828 126.381624 160.444887 C 126.145102 160.090947 125.918018 159.731697 125.699191 159.366548 C 125.480363 159.0014 125.270384 158.631532 125.069842 158.256355 C 124.869299 157.881178 124.678194 157.501281 124.496526 157.116666 C 124.314269 156.732051 124.142038 156.342716 123.979245 155.949842 C 123.816452 155.556378 123.663096 155.159964 123.519767 154.758832 C 123.376438 154.358289 123.243137 153.954797 123.119272 153.547175 C 122.995998 153.140144 122.88275 152.730162 122.77894 152.317232 C 122.67572 151.904891 122.582527 151.489601 122.49936 151.072541 C 122.416784 150.654891 122.343645 150.236061 122.281123 149.814872 C 122.219191 149.394272 122.166696 148.971903 122.125408 148.548354 C 122.08353 148.124806 122.052269 147.700667 122.031035 147.275938 C 122.010391 146.850619 121.999774 146.425301 121.999774 145.999982 C 121.999774 145.574664 122.010391 145.149345 122.031035 144.724026 C 122.052269 144.299298 122.08353 143.875159 122.125408 143.45161 C 122.166696 143.028061 122.219191 142.605692 122.281123 142.185093 C 122.343645 141.763903 122.416784 141.345074 122.49936 140.927424 C 122.582527 140.510364 122.67572 140.095074 122.77894 139.682733 C 122.88275 139.269802 122.995998 138.859821 123.119272 138.452789 C 123.243137 138.045168 123.376438 137.641676 123.519767 137.241133 C 123.663096 136.84 123.816452 136.443587 123.979245 136.050123 C 124.142038 135.657249 124.314269 135.267914 124.496526 134.883299 C 124.678194 134.498683 124.869299 134.118787 125.069842 133.74361 C 125.270384 133.368433 125.480363 132.998565 125.699191 132.633416 C 125.918018 132.268268 126.145102 131.909018 126.381624 131.555077 C 126.618146 131.201137 126.862926 130.853685 127.116553 130.511543 C 127.37018 130.16999 127.632065 129.834926 127.901617 129.505761 C 128.17176 129.176597 128.44957 128.854511 128.735048 128.539504 C 129.021116 128.223907 129.314261 127.915978 129.615075 127.615129 C 129.915888 127.314279 130.22437 127.021099 130.539339 126.734997 C 130.854898 126.449485 131.176946 126.171641 131.505481 125.901467 C 131.834607 125.631882 132.17022 125.369966 132.511732 125.116308 C 132.853834 124.863241 133.201244 124.618432 133.555142 124.381882 C 133.90904 124.145331 134.268247 123.91763 134.633352 123.698776 C 134.998457 123.480513 135.368281 123.270508 135.743413 123.069942 C 136.119135 122.869376 136.498986 122.678248 136.883555 122.496558 C 137.268125 122.314279 137.656823 122.142028 138.05024 121.979215 C 138.443067 121.816402 138.840023 121.663028 139.241108 121.519682 C 139.641603 121.376336 140.045636 121.243019 140.452619 121.119729 C 140.859602 120.99585 141.269535 120.882589 141.682416 120.779356 C 142.095297 120.675534 142.510538 120.58233 142.927548 120.499743 C 143.345148 120.416567 143.763927 120.34401 144.185066 120.28148 C 144.605615 120.218951 145.027934 120.167039 145.451432 120.125156 C 145.874931 120.083273 146.299019 120.052009 146.724286 120.031362 C 147.148964 120.010716 147.574232 120.000097 148.00009 120.000097 C 148.425357 120.000097 148.850625 120.010716 149.275893 120.031362 C 149.700571 120.052009 150.125249 120.083273 150.548157 120.125156 C 150.971655 120.167039 151.393974 120.218951 151.815113 120.28148 C 152.235662 120.34401 152.655032 120.416567 153.072042 120.499743 C 153.489642 120.58233 153.904882 120.675534 154.317174 120.779356 C 154.730055 120.882589 155.139987 120.99585 155.54756 121.119729 C 155.954543 121.243019 156.358577 121.376336 156.759072 121.519682 C 157.159567 121.663028 157.556522 121.816402 157.949939 121.979215 C 158.342766 122.142028 158.732055 122.314279 159.116624 122.495968 C 159.501193 122.678248 159.881044 122.869376 160.256176 123.069942 C 160.631309 123.270508 161.001722 123.480513 161.366827 123.698776 C 161.731342 123.91763 162.091139 124.145331 162.445037 124.381882 C 162.798346 124.618432 163.146346 124.863241 163.488447 125.116308 C 163.829959 125.369966 164.165573 125.631882 164.494108 125.901467 C 164.823233 126.171641 165.145281 126.449485 165.46025 126.734997 C 165.77581 127.021099 166.083701 127.314279 166.384515 127.615129 C 166.685918 127.915978 166.979064 128.223907 167.264542 128.539504 C 167.550609 128.854511 167.82842 129.176597 168.097972 129.505761 C 168.368114 129.834926 168.629999 130.16999 168.883626 130.511543 C 169.136663 130.853685 169.382033 131.201137 169.617965 131.555077 C 169.854487 131.909018 170.082162 132.268268 170.300989 132.633416 C 170.519816 132.998565 170.729206 133.368433 170.929748 133.74361 C 171.13029 134.118787 171.321985 134.498683 171.503653 134.883299 C 171.685321 135.267914 171.858141 135.657249 172.020934 136.050123 C 172.183728 136.443587 172.336494 136.84 172.480412 137.241133 C 172.623741 137.641676 172.757043 138.045168 172.880317 138.452789 C 173.004182 138.859821 173.117429 139.269802 173.220649 139.682733 C 173.32446 140.095074 173.417653 140.510364 173.500229 140.927424 C 173.583395 141.345074 173.655944 141.763903 173.718466 142.185093 C 173.780988 142.605692 173.832893 143.028061 173.874771 143.45161 C 173.916649 143.875159 173.94791 144.299298 173.968554 144.724026 C 173.989788 145.149345 173.999815 145.574664 173.999815 145.999982 Z M 173.999815 145.999982 " stroke="#023047" stroke-width="4" stroke-opacity="1" stroke-miterlimit="4"/><path fill="#023047" d="M 975.683594 1166.988281 C 975.683594 1167.746094 975.644531 1168.503906 975.570312 1169.261719 C 975.496094 1170.015625 975.386719 1170.765625 975.238281 1171.511719 C 975.089844 1172.253906 974.90625 1172.988281 974.683594 1173.714844 C 974.464844 1174.441406 974.207031 1175.15625 973.917969 1175.859375 C 973.628906 1176.558594 973.304688 1177.246094 972.945312 1177.914062 C 972.585938 1178.582031 972.199219 1179.234375 971.777344 1179.863281 C 971.355469 1180.496094 970.902344 1181.105469 970.421875 1181.691406 C 969.941406 1182.277344 969.429688 1182.839844 968.894531 1183.375 C 968.355469 1183.914062 967.792969 1184.421875 967.207031 1184.902344 C 966.621094 1185.386719 966.011719 1185.835938 965.382812 1186.257812 C 964.75 1186.679688 964.097656 1187.070312 963.429688 1187.429688 C 962.761719 1187.785156 962.074219 1188.109375 961.375 1188.402344 C 960.671875 1188.691406 959.957031 1188.945312 959.230469 1189.167969 C 958.503906 1189.386719 957.769531 1189.570312 957.023438 1189.71875 C 956.28125 1189.867188 955.53125 1189.980469 954.773438 1190.054688 C 954.019531 1190.128906 953.261719 1190.164062 952.503906 1190.164062 C 951.746094 1190.164062 950.988281 1190.128906 950.230469 1190.054688 C 949.476562 1189.980469 948.726562 1189.867188 947.980469 1189.71875 C 947.238281 1189.570312 946.5 1189.386719 945.773438 1189.167969 C 945.046875 1188.945312 944.335938 1188.691406 943.632812 1188.402344 C 942.929688 1188.109375 942.246094 1187.785156 941.578125 1187.429688 C 940.90625 1187.070312 940.257812 1186.679688 939.625 1186.257812 C 938.996094 1185.835938 938.386719 1185.386719 937.796875 1184.902344 C 937.210938 1184.421875 936.648438 1183.914062 936.113281 1183.375 C 935.578125 1182.839844 935.066406 1182.277344 934.585938 1181.691406 C 934.105469 1181.105469 933.652344 1180.496094 933.230469 1179.863281 C 932.808594 1179.234375 932.417969 1178.582031 932.0625 1177.914062 C 931.703125 1177.246094 931.378906 1176.558594 931.089844 1175.859375 C 930.796875 1175.15625 930.542969 1174.441406 930.320312 1173.714844 C 930.101562 1172.988281 929.917969 1172.253906 929.769531 1171.511719 C 929.621094 1170.765625 929.511719 1170.015625 929.433594 1169.261719 C 929.359375 1168.503906 929.324219 1167.746094 929.324219 1166.988281 C 929.324219 1166.230469 929.359375 1165.472656 929.433594 1164.714844 C 929.511719 1163.960938 929.621094 1163.210938 929.769531 1162.464844 C 929.917969 1161.722656 930.101562 1160.988281 930.320312 1160.261719 C 930.542969 1159.535156 930.796875 1158.820312 931.089844 1158.117188 C 931.378906 1157.417969 931.703125 1156.730469 932.0625 1156.0625 C 932.417969 1155.394531 932.808594 1154.742188 933.230469 1154.113281 C 933.652344 1153.480469 934.105469 1152.871094 934.585938 1152.285156 C 935.066406 1151.699219 935.578125 1151.136719 936.113281 1150.601562 C 936.648438 1150.0625 937.210938 1149.554688 937.796875 1149.074219 C 938.386719 1148.589844 938.996094 1148.140625 939.625 1147.71875 C 940.257812 1147.296875 940.90625 1146.90625 941.578125 1146.546875 C 942.246094 1146.191406 942.929688 1145.867188 943.632812 1145.574219 C 944.335938 1145.285156 945.046875 1145.03125 945.773438 1144.808594 C 946.5 1144.589844 947.238281 1144.40625 947.980469 1144.257812 C 948.726562 1144.109375 949.476562 1143.996094 950.230469 1143.921875 C 950.988281 1143.847656 951.746094 1143.8125 952.503906 1143.8125 C 953.261719 1143.8125 954.019531 1143.847656 954.773438 1143.921875 C 955.53125 1143.996094 956.28125 1144.109375 957.023438 1144.257812 C 957.769531 1144.40625 958.503906 1144.589844 959.230469 1144.808594 C 959.957031 1145.03125 960.671875 1145.285156 961.375 1145.574219 C 962.074219 1145.867188 962.761719 1146.191406 963.429688 1146.546875 C 964.097656 1146.90625 964.75 1147.296875 965.382812 1147.71875 C 966.011719 1148.140625 966.621094 1148.589844 967.207031 1149.074219 C 967.792969 1149.554688 968.355469 1150.0625 968.894531 1150.601562 C 969.429688 1151.136719 969.941406 1151.699219 970.421875 1152.285156 C 970.902344 1152.871094 971.355469 1153.480469 971.777344 1154.113281 C 972.199219 1154.742188 972.585938 1155.394531 972.945312 1156.0625 C 973.304688 1156.730469 973.628906 1157.417969 973.917969 1158.117188 C 974.207031 1158.820312 974.464844 1159.535156 974.683594 1160.261719 C 974.90625 1160.988281 975.089844 1161.722656 975.238281 1162.464844 C 975.386719 1163.210938 975.496094 1163.960938 975.570312 1164.714844 C 975.644531 1165.472656 975.683594 1166.230469 975.683594 1166.988281 Z M 975.683594 1166.988281 " fill-opacity="1" fill-rule="nonzero"/><path stroke-linecap="round" transform="matrix(6.622666, 0, 0, 6.621874, -27.651256, 200.194759)" fill="none" stroke-linejoin="miter" d="M 148.00009 145.999982 L 148.00009 134.000217 " stroke="#023047" stroke-width="4" stroke-opacity="1" stroke-miterlimit="4"/><path stroke-linecap="round" transform="matrix(6.622666, 0, 0, 6.621874, -27.651256, 200.194759)" fill="none" stroke-linejoin="miter" d="M 148.00009 145.999982 L 158.000075 151.999865 " stroke="#023047" stroke-width="4" stroke-opacity="1" stroke-miterlimit="4"/><g fill="#023047" fill-opacity="1"><g transform="translate(1363.096926, 782.910359)"><g><path d="M 113.109375 -30.15625 C 138.441406 -30.15625 156.039062 -42.863281 165.90625 -68.28125 L 202.46875 -54.484375 C 194.59375 -35.140625 183.039062 -20.75 167.8125 -11.3125 C 152.59375 -1.875 134.359375 2.84375 113.109375 2.84375 C 80.859375 2.84375 55.9375 -6.28125 38.34375 -24.53125 C 20.75 -42.789062 11.953125 -68.332031 11.953125 -101.15625 C 11.953125 -134.0625 20.441406 -159.332031 37.421875 -176.96875 C 54.398438 -194.613281 79.015625 -203.4375 111.265625 -203.4375 C 134.785156 -203.4375 153.941406 -198.71875 168.734375 -189.28125 C 183.535156 -179.84375 193.925781 -165.972656 199.90625 -147.671875 L 162.90625 -137.578125 C 159.78125 -147.628906 153.640625 -155.617188 144.484375 -161.546875 C 135.328125 -167.472656 124.535156 -170.4375 112.109375 -170.4375 C 93.140625 -170.4375 78.742188 -164.554688 68.921875 -152.796875 C 59.109375 -141.035156 54.203125 -123.820312 54.203125 -101.15625 C 54.203125 -78.101562 59.253906 -60.503906 69.359375 -48.359375 C 79.460938 -36.222656 94.046875 -30.15625 113.109375 -30.15625 Z M 113.109375 -30.15625 "/></g></g><g transform="translate(1573.531347, 782.910359)"><g><path d="M 55.921875 2.84375 C 41.023438 2.84375 29.398438 -1.207031 21.046875 -9.3125 C 12.703125 -17.425781 8.53125 -28.832031 8.53125 -43.53125 C 8.53125 -59.46875 13.722656 -71.609375 24.109375 -79.953125 C 34.503906 -88.296875 49.566406 -92.5625 69.296875 -92.75 L 102.4375 -93.328125 L 102.4375 -101.15625 C 102.4375 -111.207031 100.679688 -118.675781 97.171875 -123.5625 C 93.660156 -128.445312 87.925781 -130.890625 79.96875 -130.890625 C 72.5625 -130.890625 67.128906 -129.203125 63.671875 -125.828125 C 60.210938 -122.460938 58.054688 -116.894531 57.203125 -109.125 L 15.515625 -111.109375 C 18.066406 -126.097656 24.914062 -137.457031 36.0625 -145.1875 C 47.207031 -152.914062 62.410156 -156.78125 81.671875 -156.78125 C 101.117188 -156.78125 116.101562 -151.988281 126.625 -142.40625 C 137.15625 -132.820312 142.421875 -119.210938 142.421875 -101.578125 L 142.421875 -45.53125 C 142.421875 -36.894531 143.390625 -30.941406 145.328125 -27.671875 C 147.273438 -24.398438 150.523438 -22.765625 155.078125 -22.765625 C 158.117188 -22.765625 161.0625 -23.046875 163.90625 -23.609375 L 163.90625 -1.984375 C 161.53125 -1.421875 159.394531 -0.898438 157.5 -0.421875 C 155.601562 0.046875 153.707031 0.421875 151.8125 0.703125 C 149.914062 0.992188 147.898438 1.234375 145.765625 1.421875 C 143.628906 1.609375 141.140625 1.703125 138.296875 1.703125 C 128.242188 1.703125 120.820312 -0.757812 116.03125 -5.6875 C 111.238281 -10.625 108.367188 -17.878906 107.421875 -27.453125 L 106.5625 -27.453125 C 95.375 -7.253906 78.492188 2.84375 55.921875 2.84375 Z M 102.4375 -71.28125 L 81.953125 -70.984375 C 72.660156 -70.609375 66.066406 -69.585938 62.171875 -67.921875 C 58.285156 -66.265625 55.320312 -63.726562 53.28125 -60.3125 C 51.238281 -56.90625 50.21875 -52.351562 50.21875 -46.65625 C 50.21875 -39.351562 51.898438 -33.921875 55.265625 -30.359375 C 58.640625 -26.804688 63.125 -25.03125 68.71875 -25.03125 C 74.976562 -25.03125 80.691406 -26.738281 85.859375 -30.15625 C 91.035156 -33.570312 95.09375 -38.289062 98.03125 -44.3125 C 100.96875 -50.332031 102.4375 -56.710938 102.4375 -63.453125 Z M 102.4375 -71.28125 "/></g></g><g transform="translate(1735.590038, 782.910359)"><g><path d="M 120.078125 0 L 120.078125 -86.359375 C 120.078125 -113.390625 110.925781 -126.90625 92.625 -126.90625 C 82.945312 -126.90625 75.144531 -122.753906 69.21875 -114.453125 C 63.289062 -106.148438 60.328125 -95.503906 60.328125 -82.515625 L 60.328125 0 L 20.34375 0 L 20.34375 -119.5 C 20.34375 -127.75 20.222656 -134.503906 19.984375 -139.765625 C 19.753906 -145.035156 19.492188 -149.757812 19.203125 -153.9375 L 57.34375 -153.9375 C 57.625 -152.132812 58 -147.316406 58.46875 -139.484375 C 58.945312 -131.660156 59.1875 -126.28125 59.1875 -123.34375 L 59.765625 -123.34375 C 65.171875 -135.101562 71.953125 -143.640625 80.109375 -148.953125 C 88.265625 -154.265625 97.984375 -156.921875 109.265625 -156.921875 C 125.585938 -156.921875 138.109375 -151.894531 146.828125 -141.84375 C 155.554688 -131.789062 159.921875 -117.085938 159.921875 -97.734375 L 159.921875 0 Z M 120.078125 0 "/></g></g><g transform="translate(1913.584263, 782.910359)"><g><path d="M 59.765625 2.5625 C 47.992188 2.5625 38.929688 -0.632812 32.578125 -7.03125 C 26.222656 -13.4375 23.046875 -23.140625 23.046875 -36.140625 L 23.046875 -126.90625 L 3.5625 -126.90625 L 3.5625 -153.9375 L 25.046875 -153.9375 L 37.5625 -190.0625 L 62.609375 -190.0625 L 62.609375 -153.9375 L 91.765625 -153.9375 L 91.765625 -126.90625 L 62.609375 -126.90625 L 62.609375 -46.953125 C 62.609375 -39.453125 64.03125 -33.921875 66.875 -30.359375 C 69.71875 -26.804688 74.128906 -25.03125 80.109375 -25.03125 C 83.234375 -25.03125 87.691406 -25.695312 93.484375 -27.03125 L 93.484375 -2.28125 C 83.617188 0.945312 72.378906 2.5625 59.765625 2.5625 Z M 59.765625 2.5625 "/></g></g><g transform="translate(2010.620283, 782.910359)"><g><path d="M 20.34375 -181.671875 L 20.34375 -211.125 L 60.328125 -211.125 L 60.328125 -181.671875 Z M 20.34375 0 L 20.34375 -153.9375 L 60.328125 -153.9375 L 60.328125 0 Z M 20.34375 0 "/></g></g><g transform="translate(2091.578488, 782.910359)"><g><path d="M 120.078125 0 L 120.078125 -86.359375 C 120.078125 -113.390625 110.925781 -126.90625 92.625 -126.90625 C 82.945312 -126.90625 75.144531 -122.753906 69.21875 -114.453125 C 63.289062 -106.148438 60.328125 -95.503906 60.328125 -82.515625 L 60.328125 0 L 20.34375 0 L 20.34375 -119.5 C 20.34375 -127.75 20.222656 -134.503906 19.984375 -139.765625 C 19.753906 -145.035156 19.492188 -149.757812 19.203125 -153.9375 L 57.34375 -153.9375 C 57.625 -152.132812 58 -147.316406 58.46875 -139.484375 C 58.945312 -131.660156 59.1875 -126.28125 59.1875 -123.34375 L 59.765625 -123.34375 C 65.171875 -135.101562 71.953125 -143.640625 80.109375 -148.953125 C 88.265625 -154.265625 97.984375 -156.921875 109.265625 -156.921875 C 125.585938 -156.921875 138.109375 -151.894531 146.828125 -141.84375 C 155.554688 -131.789062 159.921875 -117.085938 159.921875 -97.734375 L 159.921875 0 Z M 120.078125 0 "/></g></g><g transform="translate(2269.572713, 782.910359)"><g><path d="M 55.921875 2.84375 C 41.023438 2.84375 29.398438 -1.207031 21.046875 -9.3125 C 12.703125 -17.425781 8.53125 -28.832031 8.53125 -43.53125 C 8.53125 -59.46875 13.722656 -71.609375 24.109375 -79.953125 C 34.503906 -88.296875 49.566406 -92.5625 69.296875 -92.75 L 102.4375 -93.328125 L 102.4375 -101.15625 C 102.4375 -111.207031 100.679688 -118.675781 97.171875 -123.5625 C 93.660156 -128.445312 87.925781 -130.890625 79.96875 -130.890625 C 72.5625 -130.890625 67.128906 -129.203125 63.671875 -125.828125 C 60.210938 -122.460938 58.054688 -116.894531 57.203125 -109.125 L 15.515625 -111.109375 C 18.066406 -126.097656 24.914062 -137.457031 36.0625 -145.1875 C 47.207031 -152.914062 62.410156 -156.78125 81.671875 -156.78125 C 101.117188 -156.78125 116.101562 -151.988281 126.625 -142.40625 C 137.15625 -132.820312 142.421875 -119.210938 142.421875 -101.578125 L 142.421875 -45.53125 C 142.421875 -36.894531 143.390625 -30.941406 145.328125 -27.671875 C 147.273438 -24.398438 150.523438 -22.765625 155.078125 -22.765625 C 158.117188 -22.765625 161.0625 -23.046875 163.90625 -23.609375 L 163.90625 -1.984375 C 161.53125 -1.421875 159.394531 -0.898438 157.5 -0.421875 C 155.601562 0.046875 153.707031 0.421875 151.8125 0.703125 C 149.914062 0.992188 147.898438 1.234375 145.765625 1.421875 C 143.628906 1.609375 141.140625 1.703125 138.296875 1.703125 C 128.242188 1.703125 120.820312 -0.757812 116.03125 -5.6875 C 111.238281 -10.625 108.367188 -17.878906 107.421875 -27.453125 L 106.5625 -27.453125 C 95.375 -7.253906 78.492188 2.84375 55.921875 2.84375 Z M 102.4375 -71.28125 L 81.953125 -70.984375 C 72.660156 -70.609375 66.066406 -69.585938 62.171875 -67.921875 C 58.285156 -66.265625 55.320312 -63.726562 53.28125 -60.3125 C 51.238281 -56.90625 50.21875 -52.351562 50.21875 -46.65625 C 50.21875 -39.351562 51.898438 -33.921875 55.265625 -30.359375 C 58.640625 -26.804688 63.125 -25.03125 68.71875 -25.03125 C 74.976562 -25.03125 80.691406 -26.738281 85.859375 -30.15625 C 91.035156 -33.570312 95.09375 -38.289062 98.03125 -44.3125 C 100.96875 -50.332031 102.4375 -56.710938 102.4375 -63.453125 Z M 102.4375 -71.28125 "/></g></g></g><g fill="#fb8500" fill-opacity="1"><g transform="translate(1363.096926, 1100.762683)"><g><path d="M 182.96875 -57.765625 C 182.96875 -38.128906 175.6875 -23.117188 161.125 -12.734375 C 146.570312 -2.347656 125.207031 2.84375 97.03125 2.84375 C 71.332031 2.84375 51.175781 -1.707031 36.5625 -10.8125 C 21.957031 -19.914062 12.566406 -33.71875 8.390625 -52.21875 L 48.9375 -58.890625 C 51.695312 -48.273438 57.054688 -40.570312 65.015625 -35.78125 C 72.984375 -30.988281 84.035156 -28.59375 98.171875 -28.59375 C 127.484375 -28.59375 142.140625 -37.507812 142.140625 -55.34375 C 142.140625 -61.03125 140.453125 -65.722656 137.078125 -69.421875 C 133.710938 -73.117188 128.972656 -76.203125 122.859375 -78.671875 C 116.742188 -81.140625 105.003906 -84.128906 87.640625 -87.640625 C 72.660156 -91.148438 62.226562 -93.96875 56.34375 -96.09375 C 50.457031 -98.226562 45.144531 -100.742188 40.40625 -103.640625 C 35.664062 -106.535156 31.632812 -110.019531 28.3125 -114.09375 C 24.988281 -118.175781 22.398438 -122.96875 20.546875 -128.46875 C 18.703125 -133.96875 17.78125 -140.273438 17.78125 -147.390625 C 17.78125 -165.503906 24.585938 -179.375 38.203125 -189 C 51.816406 -198.625 71.617188 -203.4375 97.609375 -203.4375 C 122.453125 -203.4375 141.109375 -199.546875 153.578125 -191.765625 C 166.054688 -183.992188 174.097656 -171.144531 177.703125 -153.21875 L 137.015625 -147.671875 C 134.929688 -156.304688 130.6875 -162.800781 124.28125 -167.15625 C 117.875 -171.519531 108.695312 -173.703125 96.75 -173.703125 C 71.332031 -173.703125 58.625 -165.738281 58.625 -149.8125 C 58.625 -144.59375 59.972656 -140.320312 62.671875 -137 C 65.378906 -133.675781 69.390625 -130.851562 74.703125 -128.53125 C 80.015625 -126.207031 90.78125 -123.289062 107 -119.78125 C 126.25 -115.707031 140.023438 -111.9375 148.328125 -108.46875 C 156.628906 -105.007812 163.195312 -100.976562 168.03125 -96.375 C 172.875 -91.78125 176.570312 -86.28125 179.125 -79.875 C 181.6875 -73.476562 182.96875 -66.109375 182.96875 -57.765625 Z M 182.96875 -57.765625 "/></g></g><g transform="translate(1557.453532, 1100.762683)"><g><path d="M 166.046875 -77.671875 C 166.046875 -51.972656 160.898438 -32.128906 150.609375 -18.140625 C 140.316406 -4.148438 125.78125 2.84375 107 2.84375 C 96.1875 2.84375 86.769531 0.5 78.75 -4.1875 C 70.738281 -8.882812 64.597656 -15.644531 60.328125 -24.46875 L 59.46875 -24.46875 C 60.039062 -21.625 60.328125 -12.992188 60.328125 1.421875 L 60.328125 60.46875 L 20.34375 60.46875 L 20.34375 -118.5 C 20.34375 -133.019531 19.960938 -144.832031 19.203125 -153.9375 L 58.046875 -153.9375 C 58.523438 -152.226562 58.929688 -148.859375 59.265625 -143.828125 C 59.597656 -138.804688 59.765625 -133.828125 59.765625 -128.890625 L 60.328125 -128.890625 C 69.335938 -147.765625 85.75 -157.203125 109.5625 -157.203125 C 127.488281 -157.203125 141.382812 -150.300781 151.25 -136.5 C 161.113281 -122.695312 166.046875 -103.085938 166.046875 -77.671875 Z M 124.359375 -77.671875 C 124.359375 -112.203125 113.78125 -129.46875 92.625 -129.46875 C 82 -129.46875 73.863281 -124.816406 68.21875 -115.515625 C 62.582031 -106.222656 59.765625 -93.226562 59.765625 -76.53125 C 59.765625 -59.9375 62.582031 -47.109375 68.21875 -38.046875 C 73.863281 -28.992188 81.90625 -24.46875 92.34375 -24.46875 C 113.6875 -24.46875 124.359375 -42.203125 124.359375 -77.671875 Z M 124.359375 -77.671875 "/></g></g><g transform="translate(1735.447757, 1100.762683)"><g><path d="M 83.375 2.84375 C 60.226562 2.84375 42.441406 -4.003906 30.015625 -17.703125 C 17.585938 -31.410156 11.375 -51.398438 11.375 -77.671875 C 11.375 -103.085938 17.679688 -122.625 30.296875 -136.28125 C 42.921875 -149.945312 60.804688 -156.78125 83.953125 -156.78125 C 106.046875 -156.78125 122.925781 -149.453125 134.59375 -134.796875 C 146.257812 -120.140625 152.09375 -98.679688 152.09375 -70.421875 L 152.09375 -69.28125 L 53.359375 -69.28125 C 53.359375 -54.300781 56.128906 -42.992188 61.671875 -35.359375 C 67.222656 -27.722656 75.125 -23.90625 85.375 -23.90625 C 99.5 -23.90625 108.410156 -30.019531 112.109375 -42.25 L 149.828125 -38.984375 C 138.910156 -11.097656 116.757812 2.84375 83.375 2.84375 Z M 83.375 -131.59375 C 73.988281 -131.59375 66.753906 -128.320312 61.671875 -121.78125 C 56.597656 -115.238281 53.921875 -106.085938 53.640625 -94.328125 L 113.390625 -94.328125 C 112.640625 -106.742188 109.65625 -116.054688 104.4375 -122.265625 C 99.21875 -128.484375 92.195312 -131.59375 83.375 -131.59375 Z M 83.375 -131.59375 "/></g></g><g transform="translate(1897.506448, 1100.762683)"><g><path d="M 83.375 2.84375 C 60.226562 2.84375 42.441406 -4.003906 30.015625 -17.703125 C 17.585938 -31.410156 11.375 -51.398438 11.375 -77.671875 C 11.375 -103.085938 17.679688 -122.625 30.296875 -136.28125 C 42.921875 -149.945312 60.804688 -156.78125 83.953125 -156.78125 C 106.046875 -156.78125 122.925781 -149.453125 134.59375 -134.796875 C 146.257812 -120.140625 152.09375 -98.679688 152.09375 -70.421875 L 152.09375 -69.28125 L 53.359375 -69.28125 C 53.359375 -54.300781 56.128906 -42.992188 61.671875 -35.359375 C 67.222656 -27.722656 75.125 -23.90625 85.375 -23.90625 C 99.5 -23.90625 108.410156 -30.019531 112.109375 -42.25 L 149.828125 -38.984375 C 138.910156 -11.097656 116.757812 2.84375 83.375 2.84375 Z M 83.375 -131.59375 C 73.988281 -131.59375 66.753906 -128.320312 61.671875 -121.78125 C 56.597656 -115.238281 53.921875 -106.085938 53.640625 -94.328125 L 113.390625 -94.328125 C 112.640625 -106.742188 109.65625 -116.054688 104.4375 -122.265625 C 99.21875 -128.484375 92.195312 -131.59375 83.375 -131.59375 Z M 83.375 -131.59375 "/></g></g><g transform="translate(2059.565138, 1100.762683)"><g><path d="M 120.078125 0 C 119.703125 -1.425781 119.253906 -5.003906 118.734375 -10.734375 C 118.210938 -16.472656 117.953125 -21.238281 117.953125 -25.03125 L 117.375 -25.03125 C 108.75 -6.445312 92.34375 2.84375 68.15625 2.84375 C 50.226562 2.84375 36.378906 -4.148438 26.609375 -18.140625 C 16.835938 -32.128906 11.953125 -51.691406 11.953125 -76.828125 C 11.953125 -102.335938 17.097656 -122.039062 27.390625 -135.9375 C 37.679688 -149.832031 52.265625 -156.78125 71.140625 -156.78125 C 82.046875 -156.78125 91.457031 -154.503906 99.375 -149.953125 C 107.300781 -145.398438 113.398438 -138.617188 117.671875 -129.609375 L 117.953125 -129.609375 L 117.671875 -154.921875 L 117.671875 -211.125 L 157.640625 -211.125 L 157.640625 -33.578125 C 157.640625 -24.085938 158.019531 -12.894531 158.78125 0 Z M 118.234375 -77.8125 C 118.234375 -94.414062 115.457031 -107.195312 109.90625 -116.15625 C 104.363281 -125.125 96.1875 -129.609375 85.375 -129.609375 C 74.65625 -129.609375 66.6875 -125.265625 61.46875 -116.578125 C 56.25 -107.898438 53.640625 -94.648438 53.640625 -76.828125 C 53.640625 -41.921875 64.117188 -24.46875 85.078125 -24.46875 C 95.609375 -24.46875 103.765625 -29.09375 109.546875 -38.34375 C 115.335938 -47.59375 118.234375 -60.75 118.234375 -77.8125 Z M 118.234375 -77.8125 "/></g></g></g></svg>